<svg xmlns="http://www.w3.org/2000/svg" width="256" height="384" viewBox="0 0 256 384">
  <rect x="1" y="1" width="254" height="382" rx="16" ry="16"
        fill="#1a1a1a" stroke="#fb9fb1" stroke-width="2"/>

  <!-- Top-left rank in JetBrains-Mono-styled FiraMono (rank digits
       and letters render correctly in FiraMono; only the suit glyphs
       needed to escape to paths). -->
  <text x="14" y="44" font-family="Fira Mono" font-size="36" font-weight="700"
        fill="#fb9fb1">2</text>

  <!-- Top-left small suit glyph at (14, 50), 20 × 20.
       `suit_path_d` is authored in a 32-unit box, so scale 0.625
       lands the visible glyph at 20 px. -->
  <g transform="translate(14 50) scale(0.625)">
    <path d="M16,28 C 8,22 2,17 2,11 C 2,7 5,4 9,4 C 12,4 14,6 16,9 C 18,6 20,4 23,4 C 27,4 30,7 30,11 C 30,17 24,22 16,28 Z" fill="#fb9fb1"/>
  </g>

  <!-- Bottom-right large suit glyph, 64 × 64, rotated 180° so it
       reads upside-down (the convention for inverted-corner
       indicators). The transform pipeline lands the glyph's visible
       bottom-right at (242, 350) and visible top-left at (178, 286). -->
  <g transform="translate(242 350) rotate(180) scale(2)">
    <path d="M16,28 C 8,22 2,17 2,11 C 2,7 5,4 9,4 C 12,4 14,6 16,9 C 18,6 20,4 23,4 C 27,4 30,7 30,11 C 30,17 24,22 16,28 Z" fill="#fb9fb1"/>
  </g>
</svg>